<?xml version="1.0" encoding="utf-8"?>
<!-- Generator: Adobe Illustrator 16.0.0, SVG Export Plug-In . SVG Version: 6.00 Build 0)  -->
<!DOCTYPE svg PUBLIC "-//W3C//DTD SVG 1.1//EN" "http://www.w3.org/Graphics/SVG/1.1/DTD/svg11.dtd">
<svg version="1.1" id="Layer_1" xmlns="http://www.w3.org/2000/svg" xmlns:xlink="http://www.w3.org/1999/xlink" x="0px" y="0px"
	 width="149.5px" height="39px" viewBox="0 0 149.5 39" enable-background="new 0 0 149.5 39" xml:space="preserve">
<g>
	<path fill-rule="evenodd" clip-rule="evenodd" fill="#028CDC" d="M7.165,20.535L8.87,25.06l-1.228,0.476l-1.659-4.569L7.165,20.535
		L7.165,20.535z M13.592,18.192c0.353,0,0.64,0.287,0.64,0.64s-0.287,0.64-0.64,0.64c-0.354,0-0.64-0.287-0.64-0.64
		S13.238,18.192,13.592,18.192L13.592,18.192z M10.209,23.881l0.813,2.01l5.713-2.19l-5.103-2.326l-0.655-1.919l-2.416,0.068
		l0.339,0.903l-0.791,0.271l1.31,3.455L10.209,23.881L10.209,23.881z M4.694,18.954L32.424,8.521l2.123,5.464L31.25,18.23
		l-5.056,1.9l0.002,0.009l0.003,0.009l0.003,0.008l0.002,0.009l0.003,0.009l0.002,0.008l0.002,0.009l0.003,0.009l0.002,0.009
		l0.003,0.008l0.002,0.009l0.002,0.009l0.002,0.009l0.002,0.009l0.002,0.009l0.002,0.009l0.002,0.009l0.002,0.009l0.002,0.009
		l0.002,0.009l0.002,0.009l0.002,0.009l0.002,0.009l0.002,0.009l0.001,0.009l0.002,0.009l0.001,0.009l0.002,0.009l0.001,0.009
		l0.002,0.009l0.001,0.01l0.001,0.009l0.001,0.009l0.001,0.009l0.001,0.009l0.001,0.009l0.001,0.01l0.001,0.009l0.001,0.009
		l0.001,0.01l0.001,0.009l0.001,0.009l0.001,0.01l0.001,0.009l0,0.009l0.001,0.01l0.001,0.009l0,0.009l0.001,0.01l0,0.009
		l0.001,0.01l0,0.009l0,0.01l0,0.009l0,0.01l0,0.009l0,0.01v0.009l0,0.01v0.009v0.01l0,0.01v0.009v0.01v0.021l0,0.021l0,0.021
		l-0.001,0.021l-0.001,0.021l-0.001,0.02l-0.001,0.021l-0.001,0.021v0.001l0,0l0,0.001v0.001l0,0v0.001v0.001v0.001v0.001l0,0.003
		v0.001v0.001l0,0.001v0.001v0.001v0.001l0,0v0.001l0,0l0,0.001v0.001l0,0v0.001v0.001l0,0l0,0v0.001v0.001h0v0.001v0.001l0,0v0.001
		l0,0v0.001l0,0.001l0,0v0.001v0.001v0.001v0.001l0,0.001V20.9v0.001v0.001l0,0.001l0,0v0.001v0.001l0,0v0.001l0,0v0.001l0,0
		l0,0.001l0,0v0.001v0.001l0,0l0,0.001v0.001v0.001v0.001l0,0v0.001v0.001h0v0.002v0.001l0,0l0,0.001v0.001l0,0v0.001v0.001l0,0
		v0.001h0v0.001v0.001l0,0v0.001v0.001l0,0h0v0.001v0.001l0,0v0.001v0.001l0,0l0,0.001l0,0v0.001v0.001l0,0l0,0.001v0.001l0,0v0.001
		v0.001l0,0v0.001l0,0.001l0,0v0.001l0,0v0.001l0,0.001l0,0v0.001l0,0v0.001v0.001l0,0l0,0.001l0,0l-0.002,0.021l-0.003,0.02
		l-0.003,0.02l-0.003,0.02l0,0.001l0,0v0.001v0.001h0l0,0v0.001v0.001l0,0v0.001h0l0,0.003l0,0l0,0v0.001v0.001l0,0l0,0.001v0.001
		l0,0l0,0l0,0.001l0,0v0.001l0,0v0.001h0v0.001l0,0l0,0v0.001l0,0v0.001l0,0.001l0,0l0,0v0.001l0,0l0,0l0,0l0,0.001v0.001l0,0v0.001
		h0l0,0v0.001l0,0v0.001l0,0l0,0.001v0.001l0,0l0,0l0,0v0.001h0v0.001v0.001l0,0l0,0l0,0l0,0.001v0.001l0,0l0,0v0.001l0,0l0,0.001
		l0,0v0.001l0,0l0,0l0,0.001v0.001l0,0v0.001l0,0h0v0.001l0,0l0,0l-0.004,0.02l-0.004,0.018l0,0.002l-0.002,0.008l-0.002,0.011
		l0,0.003l-0.003,0.014l-0.003,0.01l0,0.003l-0.002,0.01l-0.001,0.004l-0.004,0.014l0,0.001l-0.003,0.013h0l-0.003,0.013l0,0
		l-0.004,0.014l-0.004,0.013l-0.003,0.011l-0.002,0.007l-0.003,0.009l-0.004,0.013l-0.003,0.01l-0.001,0.004l-0.003,0.008
		l-0.002,0.005l-0.004,0.013l-0.003,0.009l-0.002,0.007l-0.004,0.011l-0.004,0.012v0.001l-0.005,0.013l-0.004,0.01l-0.001,0.003
		l-0.004,0.01l-0.001,0.003L26.146,21.4l-0.005,0.012v0.001c-0.007,0.017-0.015,0.032-0.022,0.049l0,0.001l-0.005,0.012
		l-0.006,0.013l-0.006,0.012l0,0c-0.042,0.085-0.091,0.167-0.146,0.244l-0.008,0.011c-0.011,0.014-0.021,0.028-0.032,0.042
		l-0.001,0.001L25.912,21.8l-0.006,0.008L25.9,21.815l-0.002,0.003l-0.008,0.01l-0.001,0.002l-0.007,0.009l-0.005,0.006
		l-0.004,0.005l-0.008,0.011l0.593,1.63l0.644,1.77l0,0c0.011,0,0.022,0.001,0.034,0.002l0,0c0.011,0.001,0.022,0.002,0.034,0.003
		l0,0c0.011,0.001,0.022,0.002,0.034,0.004l0,0c0.011,0.001,0.022,0.002,0.033,0.004l0,0c0.011,0.001,0.022,0.003,0.033,0.004l0,0
		c0.011,0.002,0.022,0.004,0.033,0.006l0,0c0.011,0.002,0.022,0.004,0.033,0.006l0,0c0.011,0.002,0.022,0.004,0.033,0.006l0,0
		c0.011,0.003,0.021,0.005,0.032,0.008l0,0c0.011,0.002,0.021,0.005,0.032,0.007c0.01,0.003,0.021,0.006,0.032,0.009l0,0
		c0.01,0.003,0.021,0.006,0.031,0.009h0c0.01,0.003,0.021,0.006,0.031,0.009c0.01,0.003,0.021,0.007,0.031,0.01l0,0
		c0.01,0.004,0.021,0.007,0.031,0.011s0.021,0.007,0.031,0.011l0,0c0.01,0.004,0.02,0.008,0.03,0.012l0,0
		c0.01,0.004,0.02,0.008,0.03,0.012l0,0c0.01,0.004,0.02,0.009,0.03,0.013l0,0c0.01,0.004,0.02,0.009,0.029,0.013
		c0.01,0.005,0.02,0.01,0.029,0.014c0.01,0.005,0.02,0.01,0.029,0.015h0c0.009,0.004,0.019,0.01,0.028,0.015l0,0
		c0.01,0.005,0.019,0.01,0.029,0.015c0.009,0.005,0.019,0.011,0.028,0.016l0,0c0.009,0.005,0.019,0.011,0.028,0.016l0,0
		c0.009,0.006,0.019,0.012,0.027,0.017l0,0c0.009,0.006,0.018,0.012,0.027,0.018c0.009,0.006,0.018,0.012,0.027,0.018l0,0
		c0.009,0.006,0.018,0.012,0.026,0.018l0,0c0.009,0.006,0.018,0.013,0.026,0.019c0.009,0.006,0.018,0.013,0.026,0.019l0,0
		c0.009,0.007,0.017,0.013,0.025,0.02h0c0.008,0.007,0.017,0.013,0.025,0.02l0,0c0.008,0.007,0.017,0.014,0.024,0.021
		c0.008,0.007,0.017,0.014,0.024,0.021l0,0c0.008,0.007,0.016,0.014,0.024,0.021l0,0c0.008,0.008,0.016,0.015,0.024,0.021
		c0.008,0.008,0.016,0.015,0.023,0.022c0.008,0.007,0.016,0.015,0.023,0.022c0.008,0.007,0.015,0.015,0.022,0.022
		s0.015,0.015,0.022,0.022s0.015,0.016,0.021,0.023l0,0c0.007,0.008,0.015,0.017,0.021,0.024s0.014,0.016,0.021,0.023
		c0.007,0.009,0.014,0.017,0.021,0.025l0,0c0.007,0.008,0.014,0.017,0.02,0.024c0.006,0.009,0.013,0.018,0.02,0.025
		c0.006,0.009,0.013,0.018,0.019,0.026c0.006,0.008,0.012,0.017,0.019,0.025c0.006,0.009,0.012,0.018,0.018,0.026
		s0.012,0.018,0.018,0.026c0.006,0.01,0.012,0.019,0.018,0.027c0.005,0.009,0.011,0.019,0.017,0.027l0,0
		c0.005,0.009,0.011,0.019,0.016,0.027c0.005,0.01,0.011,0.019,0.016,0.028c0.005,0.009,0.011,0.019,0.016,0.028
		s0.01,0.019,0.015,0.028s0.01,0.02,0.014,0.029c0.005,0.01,0.009,0.02,0.014,0.029c0.004,0.01,0.009,0.02,0.013,0.029
		s0.008,0.02,0.013,0.029s0.008,0.021,0.012,0.03s0.008,0.02,0.012,0.03h8.141v-0.56c0-0.493,0.403-0.896,0.896-0.896h0.691v-0.559
		c0-0.493,0.403-0.896,0.896-0.896H40.2v7.426h-0.896c-0.493,0-0.896-0.403-0.896-0.896v-0.594h-0.691
		c-0.493,0-0.896-0.403-0.896-0.896v-0.593h-8.271l-0.013,0.021l-0.004,0.007l0,0.001l-0.009,0.015l-0.001,0.002l-0.005,0.008
		l-0.012,0.019l-0.001,0.002l-0.002,0.003l-0.012,0.018l-0.002,0.004l-0.001,0.001l-0.001,0.002l-0.012,0.018l-0.003,0.004
		l-0.014,0.021l-0.002,0.004c-0.005,0.007-0.01,0.013-0.015,0.02l-0.001,0.002h0l-0.017,0.021l-0.001,0.001l-0.016,0.021
		L28.4,28.169l-0.015,0.019l-0.004,0.005l-0.014,0.016l-0.002,0.003v0.001l-0.003,0.003l-0.015,0.017l-0.002,0.003l-0.016,0.018
		l-0.004,0.005l-0.017,0.019l-0.001,0.001l-0.019,0.02l0,0.001l-0.018,0.019l-0.002,0.002l-0.019,0.019l-0.001,0.002l-0.018,0.017
		l-0.002,0.002l-0.001,0.002l-0.017,0.016l-0.002,0.002l-0.001,0.002c-0.006,0.005-0.013,0.011-0.019,0.017l-0.001,0.001
		l-0.02,0.017l-0.003,0.004l-0.019,0.016l-0.001,0.001h0l-0.02,0.016l-0.002,0.002l-0.002,0.002l-0.017,0.014l-0.005,0.004
		l-0.02,0.016l-0.002,0.001l-0.021,0.016H28.05l0,0.001l-0.02,0.014l-0.005,0.004l-0.02,0.014L28,28.537
		c-0.015,0.01-0.029,0.02-0.044,0.028l-0.001,0.002h-0.001l-0.021,0.013l-0.005,0.004l-0.02,0.012L27.901,28.6l-0.02,0.011
		l-0.001,0.001l-0.002,0.001l-0.021,0.012l-0.002,0.001l-0.003,0.002l-0.02,0.01l-0.006,0.003c-0.007,0.004-0.014,0.008-0.021,0.011
		L27.8,28.654c-0.007,0.003-0.015,0.007-0.022,0.011l0,0h0h0h0h0l0,0.001l0,0h0h0h0l0,0.001h0h0h0l-0.017,0.009h0h0h0l0,0.001h0l0,0
		h0h0c-0.091,0.042-0.187,0.077-0.285,0.104l-0.018,0.005l0,0h0h0h0h0h0l0,0.001h0l0,0h-0.001h0l0,0l-0.021,0.005h0l0,0.001h0h0h0h0
		h0l0,0h0h0l0,0.001h0h0h0h0l-0.023,0.005v0.001h0h0h0h0l0,0h0h0h0h0L27.388,28.8h0h0l-0.022,0.005h0h-0.001h0h0h0l0,0l0,0.001h0h0
		h0l0,0h0h0h0l-0.022,0.004l0,0.001h0h0h0h0h0h0l0,0h0h0l0,0l0,0.001h0h0h0l-0.022,0.004h0h-0.002h0h0l0,0.001h0h0h0h0h0h0h0h0l0,0
		h0h0h0l-0.021,0.004h0h0h0h0h0h0h0l0,0l0,0.001h0h0h-0.001h0l-0.024,0.004h0h0h0h0l0,0h0h0h0h0h0h0h0l-0.024,0.003h0l-0.001,0.001
		h0h0h0l0,0h-0.001l0,0h0h0h0h0h0h0h0l-0.023,0.003h0h0h0h0l0,0h0h0h0h0h0l0,0.001h0c-0.008,0-0.016,0.001-0.023,0.002h0h0h0h0h0h0
		h0h0h0h0h0h0h0h0l-0.024,0.002h0h-0.001h0h0h0h0l0,0h0h0h0h0h0h0l-0.023,0.002h0h0h0h0h0h0h0h0l0,0h0h-0.001l0,0h-0.001l0,0H27.09
		h0h0l-0.023,0.001h0h0h0h0l0,0.001h0h0h0h0h0h-0.026h0h0h0h0h0h0h0h0h0h0h-0.001h0c-0.008,0-0.016,0-0.024,0h0h0h0h0h0h0
		c-0.881,0-1.614-0.636-1.764-1.474c-0.015-0.084-0.024-0.17-0.027-0.258c0-0.02-0.001-0.04-0.001-0.061v-0.021l0-0.021l0.001-0.021
		l0-0.022l0.001-0.021l0.001-0.021l0.001-0.021l0.002-0.021l0.002-0.021l0.002-0.021l0.003-0.021l0.003-0.021l0.003-0.021
		l0.003-0.021l0.003-0.021l0.004-0.021l0.004-0.021l0,0l0,0v-0.001l0-0.001l0,0v-0.001v-0.001l0-0.001v-0.001l0-0.002l0,0
		l0.001-0.004v-0.001l0-0.001v-0.001l0,0l0-0.001v-0.001l0,0l0-0.001v-0.001l0,0v-0.001l0-0.001l0,0l0,0v-0.001v-0.001h0v-0.001
		v-0.001h0v-0.001v-0.001l0,0l0-0.001l0-0.002v-0.001l0.001-0.003l0,0v-0.002h0v-0.001V26.65h0v-0.001v-0.001l0,0l0-0.001v-0.001
		l0.005-0.02l0,0l0.005-0.021l0,0l0.005-0.021l0,0v-0.001h0v-0.001v-0.001h0v-0.001l0,0l0.002-0.007v-0.001l0-0.001l0-0.001v-0.001
		l0,0l0-0.001v-0.001l0,0l0-0.001v-0.001l0,0l0,0l0-0.001v-0.001l0,0l0,0l0-0.001v-0.001h0v-0.001l0,0l0,0l0-0.001v-0.001l0,0
		l0.001-0.005v-0.001h0v-0.001l0,0l0-0.001v-0.001h0v-0.001l0,0V26.55h0v-0.001l0,0l0,0l0-0.001v-0.001l0,0l0-0.001l0,0l0.006-0.021
		l0,0l0.006-0.02l0,0l0,0l0.006-0.02l0,0l0,0v-0.001l0,0l0-0.001l0,0l0-0.001v-0.001h0v-0.001l0-0.001l0,0v-0.001h0l0.002-0.006l0,0
		v-0.001l0,0l0-0.001v-0.001h0V26.47h0v-0.001l0,0l0,0v-0.001l0,0h0v-0.001l0-0.001l0,0l0-0.001l0,0l0,0l0,0v-0.001l0-0.001l0,0
		l0-0.001v-0.001l0,0h0l0,0V26.46l0,0l0-0.001v-0.001l0,0l0-0.001l0-0.001l0-0.001l0,0l0,0v-0.001l0-0.001l0,0l0,0l0-0.001l0,0
		l0-0.001V26.45l0,0l0-0.001l0,0v-0.001h0v-0.001l0,0l0,0l0.007-0.02l0,0l0,0v-0.001l0-0.001l0.001-0.003l0-0.001l0.001-0.002
		l0-0.001l0.002-0.006l0-0.001l0,0l0-0.001l0-0.001v-0.001v-0.001h0l0-0.001v-0.001l0-0.001l0-0.001v-0.001l0-0.001l0-0.001l0-0.001
		v-0.001h0l0-0.001l0-0.001v-0.001l0-0.001l0-0.001v-0.001l0-0.001l0-0.001l0-0.001l0-0.001v-0.001h0v-0.001l0-0.001l0-0.001
		l0-0.001v-0.001l0-0.001l0-0.001l0-0.001l0-0.001v-0.001l0-0.001h0v-0.001l0-0.001l0-0.001l0-0.001v-0.001l0-0.001l0-0.001l0-0.001
		l0,0l0,0l0-0.002l0.002-0.005l0-0.002l0.001-0.002l0-0.002l0.001-0.001l0-0.002l0.001-0.002l0-0.001v-0.001l0.001-0.002l0-0.002
		l0.001-0.001l0-0.002l0.001-0.002l0.001-0.002l0-0.002l0.001-0.001l0-0.002l0.001-0.004l0.001-0.001l0.001-0.002l0-0.002
		l0.001-0.002l0-0.002l0.001-0.002l0.001-0.001l0-0.002l0.001-0.002l0.001-0.004l0.001-0.001l0-0.002l0.001-0.002l0.001-0.002
		l0-0.002l0.001-0.001l0.001-0.002l0-0.002l0.001-0.002l0-0.001l0,0l0.001-0.002l0.001-0.002l0.001-0.002l0-0.002l0.001-0.001
		l0-0.002l0.001-0.002l0.001-0.002l0.003-0.007l0-0.002l0.001-0.001l0.001-0.002l0-0.002l0.001-0.002l0.001-0.001l0.001-0.002
		l0.001-0.002l0-0.002l0,0l0.003-0.007l0.004-0.007l0.002-0.004l0.001-0.004l0.007-0.014l0-0.001l0-0.001l0.006-0.013l0.002-0.005
		l0.001-0.002l0.004-0.007l0.004-0.007l0-0.002l0.003-0.005l0.004-0.007l0.003-0.006l0.001-0.002l0.004-0.007l0.004-0.007
		l0.001-0.002l0.002-0.005l0.004-0.007l0.004-0.006v-0.001l0.008-0.014l0.002-0.003l0.002-0.004l0.004-0.007l0.004-0.007l0,0
		l0.004-0.006l0.004-0.007l0.003-0.004l0.001-0.003l0.004-0.007l0.004-0.007l0.003-0.005l0.001-0.001l0.004-0.007l0.003-0.005
		l0.001-0.002l0.004-0.007l0.004-0.006l0.001-0.002l0.003-0.005l0.004-0.007l0.004-0.005l0-0.001l0.005-0.007l0.004-0.007
		l0.002-0.002l0.003-0.004l0.004-0.007l0.005-0.006l0,0l0.001-0.001l0.008-0.012l0,0l0.003-0.003l0.002-0.004l0.005-0.006
		l0.005-0.006l0-0.001l0.004-0.006l0.005-0.006l0.003-0.004l0.002-0.003l0.005-0.006l0.005-0.006l0.001-0.001l0.004-0.005
		l0.005-0.007l0.004-0.004l0.001-0.002l0.005-0.006l0.007-0.008l0.003-0.004l0.005-0.007l0.005-0.005l0-0.001h0
		c0.008-0.01,0.017-0.02,0.026-0.029l-1.217-3.344l0,0h0h0h0h0h0h0h0h0h-0.001h0c-0.008-0.001-0.017-0.001-0.025-0.001h0h-0.001h0
		h-0.001l0,0h-0.001h-0.001h0h0h0h0h0h0h-0.001l0-0.001h0h0l-0.025-0.001h0h0h0l0,0h0h0h-0.001h0h0h0h0h0h0h0h0l-0.026-0.002h0h0h0
		h0h-0.001h0h0h0h0l-0.001-0.001l0,0h-0.001h0l-0.024-0.002h0h-0.002h0h0h0l0,0h0h0h0h0h0l0-0.001h0h0h0l-0.026-0.002h0h0h0
		l-0.001-0.001h0l0,0h0h0h0h0h0h0h0h0h0l-0.027-0.004h0h0h0h-0.001h0h0h0h0h0h0h0l0-0.001h0l-0.024-0.003h0h0h-0.001h0l0-0.001h0
		l0,0h0h0h0h0h0h0h0h0h0l0-0.001h0h0h0l-0.023-0.003l0-0.001h0h0h0h0h0h0l0,0h0h0h0h0h0l-0.001-0.001l0,0h-0.001h0h0h0l-0.025-0.005
		h0h0h0h0l0,0c-0.009-0.002-0.019-0.004-0.028-0.006h0l-0.021-0.005l-0.008-0.001l-0.021-0.005l-0.009-0.002l-0.02-0.005
		l-0.01-0.003l-0.02-0.005l-0.007-0.002l-0.022-0.007h-0.002c-0.024-0.007-0.049-0.015-0.073-0.023l-0.007-0.002l-0.02-0.008
		l-0.008-0.002l-0.02-0.008l-0.008-0.003l-0.02-0.008l-0.005-0.002c-0.016-0.006-0.032-0.013-0.048-0.02
		c-0.009-0.004-0.017-0.008-0.025-0.012l-0.025-0.011l-0.001-0.001l-0.021-0.01l-0.006-0.003l-0.018-0.01L23.678,22.3l-0.017-0.009
		l-0.008-0.005l-0.018-0.01l-0.004-0.002c-0.023-0.013-0.045-0.025-0.067-0.039l-0.001-0.001l-0.02-0.013l-0.004-0.002l-0.02-0.014
		l-0.003-0.002l-0.021-0.014l0-0.001l-0.022-0.015l-0.005-0.004c-0.027-0.02-0.055-0.039-0.081-0.061l-0.003-0.003l-0.017-0.013
		l-0.007-0.006l-0.016-0.014l-0.005-0.004l-0.018-0.015l-0.001-0.001l-0.019-0.018c-0.007-0.006-0.014-0.013-0.021-0.019
		l-0.012-0.011l-0.01-0.01l-0.015-0.015l-0.004-0.004l-0.017-0.017l-0.004-0.004l-0.014-0.015l-0.008-0.008l-0.012-0.014
		l-0.007-0.008l-0.013-0.014c-0.006-0.007-0.012-0.014-0.018-0.021l-0.011-0.013l-0.008-0.01l-0.011-0.013l-0.008-0.01l-0.011-0.014
		l-0.007-0.009l-0.011-0.014l-0.007-0.01l-0.011-0.014l-0.007-0.01l-0.011-0.015l0,0l-0.016-0.022l-0.009-0.013l-0.008-0.012
		L23,21.693l-0.008-0.012l-0.008-0.013l-0.008-0.013l-0.008-0.014l-0.006-0.011l-0.009-0.015l-0.006-0.012l-0.008-0.014
		l-0.001-0.001c-0.004-0.008-0.009-0.016-0.014-0.024l-0.007-0.013l-0.007-0.013l-0.006-0.012l-0.008-0.016l-0.005-0.012
		l-0.008-0.016l-0.005-0.012l-0.008-0.017l-0.005-0.011l-0.009-0.019l-0.004-0.009c-0.004-0.01-0.008-0.019-0.012-0.028
		l-4.287,1.611l-0.129,0.049l-0.631,0.237l-5.375-2.574l-0.677-1.897L4.694,18.954L4.694,18.954z"/>
	<path fill="#454545" d="M49.415,29.444c-0.124,0.055-0.238,0.105-0.339,0.153c-0.1,0.048-0.231,0.096-0.395,0.148
		c-0.138,0.043-0.288,0.08-0.45,0.109c-0.163,0.032-0.34,0.047-0.535,0.047c-0.367,0-0.7-0.051-1-0.154
		c-0.3-0.103-0.561-0.264-0.783-0.484c-0.218-0.214-0.387-0.488-0.51-0.819c-0.122-0.331-0.183-0.717-0.183-1.156
		c0-0.416,0.059-0.788,0.176-1.116c0.118-0.327,0.287-0.604,0.51-0.831c0.214-0.22,0.474-0.387,0.779-0.503
		c0.305-0.114,0.642-0.173,1.015-0.173c0.271,0,0.542,0.033,0.812,0.099c0.271,0.066,0.571,0.183,0.902,0.347v0.8h-0.051
		c-0.278-0.23-0.554-0.397-0.828-0.503s-0.567-0.157-0.878-0.157c-0.256,0-0.486,0.04-0.691,0.122
		c-0.205,0.083-0.387,0.212-0.548,0.385c-0.155,0.169-0.277,0.383-0.364,0.642c-0.087,0.257-0.131,0.555-0.131,0.894
		c0,0.354,0.048,0.658,0.144,0.913s0.22,0.463,0.372,0.623c0.159,0.167,0.343,0.289,0.554,0.369c0.212,0.08,0.436,0.121,0.671,0.121
		c0.323,0,0.626-0.056,0.909-0.166s0.547-0.274,0.794-0.495h0.048V29.444L49.415,29.444z"/>
	<polygon fill="#454545" points="54.466,29.812 53.792,29.812 53.792,25.761 51.298,29.812 50.613,29.812 50.613,24.756 
		51.288,24.756 51.288,28.746 53.751,24.756 54.466,24.756 54.466,29.812 	"/>
	<path fill="#454545" d="M59.979,29.444c-0.124,0.055-0.237,0.105-0.338,0.153c-0.1,0.048-0.232,0.096-0.395,0.148
		c-0.138,0.043-0.288,0.08-0.45,0.109c-0.163,0.032-0.34,0.047-0.535,0.047c-0.367,0-0.7-0.051-1-0.154
		c-0.3-0.103-0.561-0.264-0.782-0.484c-0.218-0.214-0.387-0.488-0.51-0.819c-0.122-0.331-0.183-0.717-0.183-1.156
		c0-0.416,0.059-0.788,0.176-1.116c0.118-0.327,0.288-0.604,0.51-0.831c0.214-0.22,0.474-0.387,0.779-0.503
		c0.305-0.114,0.642-0.173,1.014-0.173c0.271,0,0.542,0.033,0.812,0.099c0.271,0.066,0.572,0.183,0.902,0.347v0.8h-0.051
		c-0.278-0.23-0.554-0.397-0.828-0.503s-0.567-0.157-0.879-0.157c-0.256,0-0.485,0.04-0.69,0.122
		c-0.206,0.083-0.387,0.212-0.548,0.385c-0.155,0.169-0.277,0.383-0.364,0.642c-0.087,0.257-0.131,0.555-0.131,0.894
		c0,0.354,0.047,0.658,0.144,0.913c0.097,0.255,0.221,0.463,0.373,0.623c0.159,0.167,0.343,0.289,0.554,0.369
		c0.212,0.08,0.436,0.121,0.671,0.121c0.323,0,0.626-0.056,0.909-0.166s0.547-0.274,0.794-0.495h0.047V29.444L59.979,29.444z"/>
	<polygon fill="#454545" points="64.787,25.354 62.979,25.354 62.979,29.812 62.304,29.812 62.304,25.354 60.496,25.354 
		60.496,24.756 64.787,24.756 64.787,25.354 	"/>
	<polygon fill="#454545" points="69.032,29.812 65.708,29.812 65.708,24.756 69.032,24.756 69.032,25.354 66.382,25.354 
		66.382,26.738 69.032,26.738 69.032,27.336 66.382,27.336 66.382,29.214 69.032,29.214 69.032,29.812 	"/>
	<polygon fill="#454545" points="74.85,29.812 74.175,29.812 74.175,25.456 72.77,28.421 72.37,28.421 70.976,25.456 70.976,29.812 
		70.35,29.812 70.35,24.756 71.265,24.756 72.611,27.571 73.914,24.756 74.85,24.756 74.85,29.812 	"/>
	<path fill="#454545" d="M79.53,28.257c0-0.169-0.027-0.316-0.085-0.445c-0.057-0.129-0.145-0.232-0.264-0.311
		c-0.124-0.084-0.267-0.134-0.431-0.152c-0.162-0.018-0.391-0.026-0.686-0.026h-0.935v1.905h0.917c0.3,0,0.531-0.015,0.691-0.044
		c0.161-0.028,0.305-0.086,0.426-0.168c0.127-0.088,0.219-0.191,0.277-0.31C79.501,28.589,79.53,28.438,79.53,28.257L79.53,28.257z
		 M80.232,28.246c0,0.244-0.047,0.467-0.144,0.665c-0.096,0.199-0.225,0.361-0.385,0.487c-0.19,0.148-0.393,0.255-0.611,0.318
		c-0.216,0.063-0.497,0.095-0.84,0.095h-1.797v-5.056h0.675v1.982h1.145c0.343,0,0.623,0.02,0.84,0.059
		c0.217,0.04,0.421,0.135,0.613,0.284c0.172,0.133,0.298,0.299,0.38,0.496C80.191,27.774,80.232,27.997,80.232,28.246L80.232,28.246
		z M81.491,29.812h-0.675v-5.056h0.675V29.812L81.491,29.812z"/>
	<path fill="#454545" d="M89.364,28.246c0,0.244-0.049,0.467-0.145,0.665c-0.097,0.199-0.224,0.361-0.385,0.487
		c-0.19,0.148-0.395,0.255-0.612,0.318c-0.217,0.063-0.497,0.095-0.842,0.095h-1.835v-5.056h3.388v0.598h-2.713v1.385h1.182
		c0.344,0,0.625,0.02,0.842,0.059c0.218,0.04,0.423,0.135,0.615,0.284c0.171,0.133,0.299,0.299,0.381,0.496
		S89.364,27.997,89.364,28.246L89.364,28.246z M88.662,28.257c0-0.169-0.028-0.316-0.085-0.445s-0.145-0.232-0.266-0.311
		c-0.124-0.084-0.268-0.134-0.431-0.152c-0.162-0.018-0.392-0.026-0.688-0.026h-0.972v1.905h0.954c0.301,0,0.532-0.015,0.694-0.044
		c0.162-0.028,0.304-0.086,0.427-0.168c0.126-0.088,0.219-0.191,0.278-0.31C88.633,28.589,88.662,28.438,88.662,28.257
		L88.662,28.257z"/>
	<polygon fill="#454545" points="93.883,29.812 90.559,29.812 90.559,24.756 93.883,24.756 93.883,25.354 91.233,25.354 
		91.233,26.738 93.883,26.738 93.883,27.336 91.233,27.336 91.233,29.214 93.883,29.214 93.883,29.812 	"/>
	<path fill="#454545" d="M98.072,27.381c0.108,0.096,0.197,0.216,0.27,0.361c0.07,0.146,0.106,0.333,0.106,0.564
		c0,0.237-0.051,0.452-0.154,0.645c-0.103,0.191-0.233,0.355-0.392,0.49c-0.181,0.153-0.402,0.269-0.661,0.347
		c-0.262,0.076-0.542,0.114-0.842,0.114c-0.333,0-0.642-0.031-0.925-0.094c-0.284-0.062-0.511-0.128-0.678-0.194v-0.755h0.052
		c0.224,0.134,0.476,0.244,0.757,0.33c0.28,0.086,0.548,0.129,0.803,0.129c0.164,0,0.339-0.023,0.528-0.07
		c0.19-0.048,0.344-0.117,0.461-0.21c0.121-0.103,0.211-0.215,0.265-0.34c0.057-0.125,0.084-0.266,0.084-0.421
		c0-0.179-0.033-0.324-0.101-0.438c-0.068-0.113-0.159-0.205-0.275-0.275c-0.114-0.067-0.253-0.116-0.416-0.147
		c-0.163-0.03-0.345-0.045-0.546-0.045h-0.679v-0.585h0.604c0.39,0,0.703-0.071,0.939-0.215s0.354-0.353,0.354-0.625
		c0-0.122-0.03-0.229-0.09-0.322c-0.06-0.094-0.143-0.167-0.245-0.222c-0.102-0.054-0.216-0.094-0.341-0.117
		s-0.274-0.035-0.446-0.035c-0.176,0-0.339,0.017-0.488,0.051c-0.148,0.035-0.29,0.074-0.423,0.12
		c-0.108,0.038-0.219,0.088-0.332,0.147s-0.195,0.104-0.247,0.134h-0.044v-0.745c0.169-0.071,0.394-0.139,0.674-0.2
		c0.281-0.062,0.563-0.092,0.849-0.092c0.278,0,0.519,0.022,0.718,0.066c0.2,0.044,0.385,0.116,0.555,0.216
		c0.177,0.108,0.311,0.241,0.404,0.396c0.092,0.153,0.139,0.332,0.139,0.536c0,0.288-0.092,0.531-0.276,0.731
		c-0.183,0.199-0.416,0.329-0.697,0.391v0.053c0.117,0.02,0.243,0.057,0.377,0.109C97.846,27.216,97.966,27.288,98.072,27.381
		L98.072,27.381z"/>
	<path fill="#454545" d="M103.492,25.338c0.205,0.226,0.362,0.503,0.473,0.831s0.165,0.7,0.165,1.116
		c0,0.417-0.057,0.789-0.169,1.118s-0.269,0.604-0.469,0.824c-0.209,0.229-0.454,0.4-0.738,0.516
		c-0.285,0.115-0.608,0.173-0.973,0.173c-0.356,0-0.68-0.059-0.971-0.176c-0.289-0.118-0.537-0.289-0.74-0.513
		c-0.204-0.225-0.36-0.499-0.471-0.825c-0.11-0.325-0.165-0.697-0.165-1.117c0-0.411,0.055-0.781,0.164-1.108
		c0.107-0.327,0.267-0.606,0.475-0.839c0.199-0.223,0.446-0.392,0.741-0.51c0.296-0.117,0.617-0.177,0.967-0.177
		c0.361,0,0.688,0.06,0.975,0.179C103.045,24.948,103.29,25.117,103.492,25.338L103.492,25.338z M103.427,27.285
		c0-0.655-0.147-1.16-0.44-1.517c-0.293-0.355-0.694-0.533-1.202-0.533c-0.513,0-0.915,0.178-1.208,0.533
		c-0.293,0.356-0.438,0.861-0.438,1.517c0,0.662,0.149,1.168,0.447,1.52s0.697,0.527,1.199,0.527c0.501,0,0.9-0.176,1.198-0.527
		C103.278,28.453,103.427,27.947,103.427,27.285L103.427,27.285z"/>
	<polygon fill="#454545" points="109.307,29.812 108.632,29.812 108.632,25.354 106.121,25.354 106.121,29.812 105.446,29.812 
		105.446,24.756 109.307,24.756 109.307,29.812 	"/>
	<path fill="#454545" d="M114.902,29.812h-0.718l-0.493-1.404H111.5l-0.493,1.404h-0.681l1.84-5.056h0.896L114.902,29.812
		L114.902,29.812z M113.479,27.823l-0.884-2.477l-0.887,2.477H113.479L113.479,27.823z"/>
	<path fill="#454545" d="M119.818,29.444c-0.124,0.055-0.237,0.105-0.339,0.153c-0.1,0.048-0.231,0.096-0.395,0.148
		c-0.139,0.043-0.288,0.08-0.45,0.109c-0.162,0.032-0.34,0.047-0.534,0.047c-0.367,0-0.7-0.051-1-0.154
		c-0.301-0.103-0.562-0.264-0.783-0.484c-0.218-0.214-0.387-0.488-0.51-0.819c-0.121-0.331-0.183-0.717-0.183-1.156
		c0-0.416,0.059-0.788,0.176-1.116c0.118-0.327,0.287-0.604,0.51-0.831c0.215-0.22,0.475-0.387,0.779-0.503
		c0.305-0.114,0.642-0.173,1.015-0.173c0.271,0,0.542,0.033,0.812,0.099c0.271,0.066,0.571,0.183,0.901,0.347v0.8h-0.051
		c-0.278-0.23-0.555-0.397-0.828-0.503s-0.566-0.157-0.878-0.157c-0.257,0-0.486,0.04-0.691,0.122
		c-0.205,0.083-0.387,0.212-0.548,0.385c-0.155,0.169-0.277,0.383-0.364,0.642c-0.087,0.257-0.131,0.555-0.131,0.894
		c0,0.354,0.048,0.658,0.144,0.913c0.097,0.255,0.221,0.463,0.372,0.623c0.159,0.167,0.344,0.289,0.555,0.369
		c0.212,0.08,0.436,0.121,0.671,0.121c0.323,0,0.626-0.056,0.908-0.166c0.283-0.11,0.547-0.274,0.794-0.495h0.048V29.444
		L119.818,29.444z"/>
	<polygon fill="#454545" points="124.877,29.812 124.202,29.812 124.202,27.336 121.691,27.336 121.691,29.812 121.017,29.812 
		121.017,24.756 121.691,24.756 121.691,26.738 124.202,26.738 124.202,24.756 124.877,24.756 124.877,29.812 	"/>
	<path fill="#454545" d="M130.253,25.338c0.205,0.226,0.363,0.503,0.473,0.831c0.11,0.328,0.165,0.7,0.165,1.116
		c0,0.417-0.056,0.789-0.168,1.118c-0.113,0.329-0.27,0.604-0.47,0.824c-0.209,0.229-0.454,0.4-0.738,0.516
		c-0.285,0.115-0.608,0.173-0.973,0.173c-0.355,0-0.68-0.059-0.97-0.176c-0.29-0.118-0.538-0.289-0.741-0.513
		c-0.204-0.225-0.36-0.499-0.471-0.825c-0.11-0.325-0.164-0.697-0.164-1.117c0-0.411,0.054-0.781,0.163-1.108
		c0.107-0.327,0.267-0.606,0.476-0.839c0.198-0.223,0.446-0.392,0.74-0.51c0.296-0.117,0.618-0.177,0.967-0.177
		c0.361,0,0.688,0.06,0.975,0.179C129.806,24.948,130.051,25.117,130.253,25.338L130.253,25.338z M130.188,27.285
		c0-0.655-0.147-1.16-0.44-1.517c-0.294-0.355-0.695-0.533-1.202-0.533c-0.514,0-0.916,0.178-1.208,0.533
		c-0.293,0.356-0.439,0.861-0.439,1.517c0,0.662,0.149,1.168,0.447,1.52s0.698,0.527,1.2,0.527c0.5,0,0.899-0.176,1.197-0.527
		C130.04,28.453,130.188,27.947,130.188,27.285L130.188,27.285z"/>
	<path fill="#454545" d="M136.109,29.444c-0.124,0.055-0.238,0.105-0.339,0.153c-0.1,0.048-0.232,0.096-0.396,0.148
		c-0.138,0.043-0.287,0.08-0.449,0.109c-0.162,0.032-0.34,0.047-0.535,0.047c-0.367,0-0.7-0.051-1-0.154
		c-0.3-0.103-0.561-0.264-0.782-0.484c-0.218-0.214-0.387-0.488-0.51-0.819c-0.122-0.331-0.184-0.717-0.184-1.156
		c0-0.416,0.06-0.788,0.176-1.116c0.118-0.327,0.288-0.604,0.511-0.831c0.214-0.22,0.474-0.387,0.778-0.503
		c0.306-0.114,0.643-0.173,1.015-0.173c0.271,0,0.542,0.033,0.812,0.099c0.271,0.066,0.571,0.183,0.902,0.347v0.8h-0.052
		c-0.277-0.23-0.554-0.397-0.827-0.503s-0.567-0.157-0.879-0.157c-0.256,0-0.485,0.04-0.69,0.122
		c-0.205,0.083-0.388,0.212-0.549,0.385c-0.155,0.169-0.277,0.383-0.364,0.642c-0.086,0.257-0.13,0.555-0.13,0.894
		c0,0.354,0.047,0.658,0.144,0.913c0.096,0.255,0.22,0.463,0.372,0.623c0.158,0.167,0.343,0.289,0.554,0.369
		c0.212,0.08,0.436,0.121,0.671,0.121c0.323,0,0.626-0.056,0.909-0.166s0.547-0.274,0.794-0.495h0.048V29.444L136.109,29.444z"/>
	<polygon fill="#454545" points="140.917,25.354 139.108,25.354 139.108,29.812 138.434,29.812 138.434,25.354 136.626,25.354 
		136.626,24.756 140.917,24.756 140.917,25.354 	"/>
	<polygon fill="#454545" points="145.69,29.812 145.016,29.812 145.016,25.761 142.522,29.812 141.837,29.812 141.837,24.756 
		142.512,24.756 142.512,28.746 144.976,24.756 145.69,24.756 145.69,29.812 	"/>
	<path fill="#454545" d="M54.027,20.108h-1.359l-0.936-2.662h-4.151l-0.936,2.662h-1.289l3.485-9.58h1.7L54.027,20.108
		L54.027,20.108z M51.33,16.339l-1.674-4.691l-1.68,4.691H51.33L51.33,16.339z"/>
	<path fill="#454545" d="M63.644,20.108H62.01l-3.898-4.375h-0.859v4.375h-1.278v-9.58h1.278v4.296
		c0.22-0.004,0.424-0.026,0.617-0.064c0.193-0.04,0.375-0.112,0.547-0.219c0.171-0.099,0.34-0.24,0.507-0.422
		c0.167-0.183,0.316-0.406,0.444-0.672c0.055-0.114,0.121-0.262,0.195-0.437c0.075-0.176,0.152-0.36,0.229-0.554
		c0.296-0.711,0.644-1.21,1.039-1.498c0.397-0.288,0.979-0.43,1.753-0.43h0.507v1.133h-0.534c-0.294,0-0.525,0.026-0.692,0.081
		c-0.167,0.055-0.316,0.143-0.45,0.27c-0.123,0.112-0.23,0.262-0.323,0.45c-0.092,0.189-0.187,0.411-0.284,0.664
		c-0.222,0.566-0.448,0.981-0.678,1.248c-0.231,0.266-0.541,0.496-0.929,0.694L63.644,20.108L63.644,20.108z"/>
	<polygon fill="#454545" points="72.381,11.662 68.955,11.662 68.955,20.108 67.676,20.108 67.676,11.662 64.25,11.662 
		64.25,10.528 72.381,10.528 72.381,11.662 	"/>
	<polygon fill="#454545" points="81.425,20.108 80.146,20.108 80.146,12.433 75.423,20.108 74.125,20.108 74.125,10.528 
		75.403,10.528 75.403,18.088 80.069,10.528 81.425,10.528 81.425,20.108 	"/>
	<path fill="#454545" d="M91.712,17.159c0,0.477-0.09,0.898-0.27,1.263c-0.181,0.365-0.424,0.666-0.729,0.9
		c-0.36,0.284-0.756,0.486-1.188,0.606c-0.43,0.121-0.979,0.181-1.645,0.181h-3.402v-9.58h2.842c0.701,0,1.224,0.026,1.573,0.077
		c0.347,0.053,0.681,0.158,0.997,0.321c0.354,0.185,0.608,0.421,0.766,0.711c0.161,0.288,0.24,0.635,0.24,1.037
		c0,0.453-0.117,0.839-0.348,1.16c-0.232,0.318-0.542,0.576-0.929,0.769v0.053c0.647,0.132,1.159,0.417,1.533,0.853
		C91.525,15.944,91.712,16.493,91.712,17.159L91.712,17.159z M89.564,12.852c0-0.229-0.04-0.422-0.116-0.58
		c-0.077-0.156-0.2-0.283-0.374-0.382c-0.199-0.114-0.445-0.187-0.733-0.213c-0.285-0.028-0.641-0.042-1.067-0.042h-1.518v2.741
		h1.647c0.397,0,0.716-0.02,0.95-0.062c0.237-0.04,0.455-0.123,0.657-0.25s0.345-0.292,0.429-0.494
		C89.522,13.368,89.564,13.128,89.564,12.852L89.564,12.852z M90.381,17.203c0-0.382-0.057-0.688-0.173-0.914
		c-0.117-0.226-0.325-0.419-0.631-0.576c-0.206-0.107-0.456-0.178-0.748-0.208c-0.295-0.033-0.652-0.048-1.072-0.048h-2.001v3.545
		h1.685c0.558,0,1.015-0.029,1.37-0.086c0.356-0.059,0.648-0.165,0.877-0.318c0.239-0.165,0.415-0.355,0.527-0.569
		C90.326,17.815,90.381,17.541,90.381,17.203L90.381,17.203z"/>
	<polygon fill="#454545" points="101.274,20.108 99.996,20.108 99.996,12.433 95.272,20.108 93.975,20.108 93.975,10.528 
		95.253,10.528 95.253,18.088 99.92,10.528 101.274,10.528 101.274,20.108 	"/>
	<path fill="#454545" d="M112.3,22.282h-1.212v-2.2h-6.773v2.2h-1.213v-3.307h0.777c0.559-0.918,1.002-2.115,1.334-3.593
		c0.331-1.478,0.498-3.094,0.498-4.854h5.68v8.447h0.909V22.282L112.3,22.282z M110.112,18.975v-7.34h-3.216
		c-0.059,1.531-0.248,2.932-0.562,4.204c-0.316,1.271-0.728,2.317-1.23,3.136H110.112L110.112,18.975z"/>
	<polygon fill="#454545" points="120.915,20.108 114.616,20.108 114.616,10.528 120.915,10.528 120.915,11.662 115.895,11.662 
		115.895,14.284 120.915,14.284 120.915,15.417 115.895,15.417 115.895,18.975 120.915,18.975 120.915,20.108 	"/>
	<path fill="#454545" d="M130.546,11.631c0.389,0.428,0.688,0.953,0.896,1.575c0.208,0.622,0.312,1.327,0.312,2.115
		c0,0.791-0.105,1.496-0.318,2.12c-0.213,0.624-0.51,1.144-0.89,1.562c-0.396,0.433-0.86,0.757-1.398,0.977
		c-0.54,0.218-1.153,0.327-1.843,0.327c-0.675,0-1.287-0.111-1.838-0.334c-0.55-0.224-1.02-0.546-1.404-0.97
		c-0.387-0.426-0.683-0.947-0.892-1.564c-0.208-0.617-0.312-1.322-0.312-2.117c0-0.779,0.104-1.48,0.31-2.1
		c0.204-0.619,0.505-1.148,0.9-1.59c0.376-0.422,0.846-0.743,1.403-0.966c0.561-0.222,1.171-0.334,1.832-0.334
		c0.685,0,1.303,0.112,1.847,0.338C129.698,10.893,130.164,11.213,130.546,11.631L130.546,11.631z M130.423,15.32
		c0-1.241-0.278-2.198-0.834-2.873s-1.315-1.01-2.277-1.01c-0.974,0-1.735,0.336-2.289,1.01c-0.556,0.674-0.832,1.632-0.832,2.873
		c0,1.254,0.283,2.214,0.848,2.879s1.322,0.999,2.273,0.999c0.948,0,1.704-0.333,2.269-0.999
		C130.142,17.534,130.423,16.575,130.423,15.32L130.423,15.32z"/>
</g>
</svg>
